<?xml version="1.0" encoding="UTF-8"?>
<svg version="1.1" xmlns="http://www.w3.org/2000/svg" width="50" height="50">
<path d="M0 0 C0.95261719 -0.08765625 1.90523437 -0.1753125 2.88671875 -0.265625 C9.25169137 -0.47233588 12.9298931 1.06558432 17.8046875 5.1953125 C22.89694236 10.39686902 23.76854449 15.37278245 23.71853638 22.47644043 C23.63976527 24.77903736 23.50838999 27.0749893 23.375 29.375 C23.32829283 30.95428606 23.28658944 32.53372839 23.25 34.11328125 C22.92317266 45.45182734 22.92317266 45.45182734 21.625 46.75 C19.26101532 46.8507812 16.92688689 46.88973215 14.5625 46.8828125 C13.85601318 46.88376923 13.14952637 46.88472595 12.42163086 46.88571167 C10.92529207 46.88639333 9.42895033 46.88454005 7.93261719 46.88037109 C5.63469843 46.87502257 3.33697514 46.88031651 1.0390625 46.88671875 C-0.41145877 46.88605797 -1.86197991 46.8847768 -3.3125 46.8828125 C-4.3499939 46.88584885 -4.3499939 46.88584885 -5.40844727 46.88894653 C-10.26004776 46.86495224 -10.26004776 46.86495224 -11.375 45.75 C-11.47295311 44.37390118 -11.50298088 42.99286118 -11.50439453 41.61328125 C-11.50754669 40.73567139 -11.51069885 39.85806152 -11.51394653 38.95385742 C-11.5119223 37.99970947 -11.50989807 37.04556152 -11.5078125 36.0625 C-11.50876923 35.08966064 -11.50972595 34.11682129 -11.51071167 33.11450195 C-11.51139358 31.053222 -11.50953853 28.99193992 -11.50537109 26.93066406 C-11.500023 23.76362312 -11.50531572 20.596724 -11.51171875 17.4296875 C-11.51105797 15.43229135 -11.50977681 13.43489529 -11.5078125 11.4375 C-11.50983673 10.48335205 -11.51186096 9.5292041 -11.51394653 8.54614258 C-11.51079437 7.66853271 -11.50764221 6.79092285 -11.50439453 5.88671875 C-11.50359894 5.11030029 -11.50280334 4.33388184 -11.50198364 3.53393555 C-11.15932871 -1.279868 -3.64462793 0.15166202 0 0 Z M-9.375 4.75 C-9.57490227 7.59540142 -9.65476976 10.34137784 -9.640625 13.1875 C-9.64253845 14.02337646 -9.6444519 14.85925293 -9.64642334 15.72045898 C-9.64778536 17.48909811 -9.64408776 19.25774723 -9.63574219 21.02636719 C-9.62504275 23.73915994 -9.63563676 26.45129044 -9.6484375 29.1640625 C-9.64711591 30.8802098 -9.64455352 32.59635669 -9.640625 34.3125 C-9.64467346 35.12710693 -9.64872192 35.94171387 -9.65289307 36.78100586 C-9.80065435 41.23707785 -9.80065435 41.23707785 -7.375 44.75 C-4.68973382 45.0615683 -4.68973382 45.0615683 -1.5625 45.015625 C0.17386719 45.01949219 0.17386719 45.01949219 1.9453125 45.0234375 C3.15960938 45.01570313 4.37390625 45.00796875 5.625 45 C6.83929687 45.00773437 8.05359375 45.01546875 9.3046875 45.0234375 C10.46226563 45.02085938 11.61984375 45.01828125 12.8125 45.015625 C14.41158203 45.01224121 14.41158203 45.01224121 16.04296875 45.00878906 C18.78823461 45.00880798 18.78823461 45.00880798 20.625 42.75 C20.90376767 39.83512078 20.90376767 39.83512078 20.8203125 36.4296875 C20.81386719 35.17285156 20.80742188 33.91601562 20.80078125 32.62109375 C20.78402344 31.30238281 20.76726563 29.98367187 20.75 28.625 C20.73996983 27.28516279 20.73084404 25.94531848 20.72265625 24.60546875 C20.69902075 21.32013427 20.66607234 18.03515535 20.625 14.75 C15.18 14.255 15.18 14.255 9.625 13.75 C9.295 10.12 8.965 6.49 8.625 2.75 C5.99972811 2.69617894 3.37555287 2.65641687 0.75 2.625 C-0.36955078 2.59986328 -0.36955078 2.59986328 -1.51171875 2.57421875 C-5.91152444 2.34911196 -5.91152444 2.34911196 -9.375 4.75 Z M10.625 4.75 C10.45818891 7.66652174 10.45818891 7.66652174 10.625 10.75 C12.52255144 13.09973818 12.52255144 13.09973818 15.75 12.875 C16.69875 12.83375 17.6475 12.7925 18.625 12.75 C17.67078192 11.60073734 16.71147955 10.45569459 15.75 9.3125 C15.21632813 8.67441406 14.68265625 8.03632813 14.1328125 7.37890625 C12.7027243 5.64194996 12.7027243 5.64194996 10.625 4.75 Z " fill="#000000" transform="translate(19.375,1.25)"/>
<path d="M0 0 C5.28 0 10.56 0 16 0 C16 0.66 16 1.32 16 2 C10.72 2 5.44 2 0 2 C0 1.34 0 0.68 0 0 Z " fill="#000000" transform="translate(17,32)"/>
<path d="M0 0 C5.28 0 10.56 0 16 0 C16 0.66 16 1.32 16 2 C10.72 2 5.44 2 0 2 C0 1.34 0 0.68 0 0 Z " fill="#000000" transform="translate(17,28)"/>
<path d="M0 0 C5.28 0 10.56 0 16 0 C16 0.66 16 1.32 16 2 C10.72 2 5.44 2 0 2 C0 1.34 0 0.68 0 0 Z " fill="#000000" transform="translate(17,24)"/>
<path d="M0 0 C2.97 0 5.94 0 9 0 C9 0.66 9 1.32 9 2 C6.03 2 3.06 2 0 2 C0 1.34 0 0.68 0 0 Z " fill="#000000" transform="translate(17,36)"/>
</svg>
